<?xml version="1.0" encoding="iso-8859-1"?>
<!-- Generator: Adobe Illustrator 19.0.1, SVG Export Plug-In . SVG Version: 6.00 Build 0)  -->
<svg version="1.1" xmlns="http://www.w3.org/2000/svg" xmlns:xlink="http://www.w3.org/1999/xlink" x="0px" y="0px"
	 viewBox="0 0 128 128" style="enable-background:new 0 0 128 128;" xml:space="preserve">
<g id="_x32_">
	<g id="pin_3_">
		<path style="fill:#698DA8;" d="M66.441,4.883c-25.941,0-46.971,21.03-46.971,46.971C19.47,95.71,64,126.498,64,126.498
			s46.971-32.875,46.971-78.306C110.971,22.251,92.383,4.883,66.441,4.883z M65.221,85.5c-20.604,0-37.307-16.703-37.307-37.308
			c0-20.603,16.703-37.307,37.307-37.307c20.604,0,37.306,16.704,37.306,37.307C102.527,68.797,85.824,85.5,65.221,85.5z"/>
		<path style="fill:#577793;" d="M64,126.498c0,0,46.971-32.875,46.971-78.306c0-25.941-19.485-44.454-46.971-43.247l0,7.161
			c20.604,0,36.086,15.483,36.086,36.087c0,20.604-15.482,36.087-36.086,36.087V126.498z"/>
		<path style="fill:#E9AE97;" d="M64.006,12.181c-19.895,0-36.006,16.124-36.006,36.006c0,19.895,16.111,36.006,36.006,36.006
			c19.883,0,36.006-16.111,36.006-36.006C100.012,28.305,83.888,12.181,64.006,12.181z M70.182,68.535H46.161V27.28h24.021V68.535z"
			/>
		<path style="fill:#1E1E1E;" d="M63.983,128l-0.705-0.517c-0.475-0.348-47.47-35.324-47.47-79.29C15.808,21.619,37.427,0,64,0
			s48.192,21.619,48.192,48.192c0,45.54-47.017,78.974-47.492,79.306L63.983,128z M64,2.441c-25.227,0-45.751,20.524-45.751,45.751
			c0,39.798,39.927,72.253,45.766,76.784c5.874-4.371,45.735-35.578,45.735-76.784C109.751,22.965,89.227,2.441,64,2.441z M64,85.42
			c-20.527,0-37.227-16.7-37.227-37.228c0-20.527,16.7-37.227,37.227-37.227s37.227,16.7,37.227,37.227
			C101.227,68.72,84.527,85.42,64,85.42z M64,13.406c-19.181,0-34.786,15.605-34.786,34.786c0,19.181,15.605,34.787,34.786,34.787
			s34.786-15.606,34.786-34.787C98.786,29.011,83.181,13.406,64,13.406z"/>
	</g>
	<g id="icon_3_">
		<path style="fill:#44B19A;" d="M49.823,27.28v41.255h24.021V27.28H49.823z M69.718,45.844H50.86V31.601h18.858V45.844z"/>
		<path style="fill:#1E1E1E;" d="M90.652,39.262L77.39,29.433l-1.111,1.499v-4.868H44.292V67.31h-4.703v2.441h4.703h31.987h4.703
			V67.31h-4.703V52.074h0.168c0.302,0,0.547,0.246,0.547,0.548v6.187c0,3.597,2.926,6.524,6.524,6.524
			c3.597,0,6.524-2.926,6.524-6.524v-8.239h0.61V39.262z M86.99,44.317h-1.067c-0.653,0-1.185-0.531-1.185-1.184v-3.696l2.252,1.669
			V44.317z M73.838,67.31H46.733V28.505h27.105v21.128v2.441V67.31z M87.601,58.808c0,2.251-1.831,4.082-4.082,4.082
			s-4.082-1.831-4.082-4.082v-6.187c0-1.648-1.34-2.989-2.988-2.989h-0.168V33.167l6.018,4.461v5.505
			c0,1.999,1.626,3.625,3.626,3.625h1.067v3.811h0.61V58.808z M49.638,47.066h21.297v-16.68H49.638V47.066z M52.079,32.827h16.414
			v11.797H52.079V32.827z"/>
	</g>
</g>
<g id="Layer_1">
</g>
</svg>
